name rise49.8558peak67.6521fall70.3087.mot
datacolumns 19
datarows 33
range 4.95497800000000 5.00831200000000
endheader
time	ground_force1_vx	ground_force1_vy	ground_force1_vz	ground_force1_px	ground_force1_py	ground_force1_pz	ground_force2_vx	ground_force2_vy	ground_force2_vz	ground_force2_px	ground_force2_py	ground_force2_pz	ground_torque1_x	ground_torque1_y	ground_torque1_z	ground_torque2_x	ground_torque2_y	ground_torque2_z	
4.95497800000000	-42.32066700000000	823.01737500000002	66.20762300000000	0.13239700000000	0.00000000000000	0.10581100000000	-0.92196300000000	3.55480200000000	0.42527800000000	0.00000000000000	0.00000000000000	0.00000000000000	0.00000000000000	26.15306200000000	0.00000000000000	0.00000000000000	0.07056900000000	0.00000000000000	
4.95664900000000	-42.76419500000000	821.75408400000003	66.25504900000000	0.13143100000000	0.00000000000000	0.10579900000000	-1.42034500000000	7.21599300000000	0.70386300000000	0.00000000000000	0.00000000000000	0.00000000000000	0.00000000000000	26.06274800000000	0.00000000000000	0.00000000000000	0.12870000000000	0.00000000000000	
4.95831500000000	-43.21550900000000	820.35602500000005	66.27732100000000	0.13047000000000	0.00000000000000	0.10578200000000	-1.97131900000000	11.68946400000000	1.02339000000000	0.00000000000000	0.00000000000000	0.00000000000000	0.00000000000000	25.96872500000000	0.00000000000000	0.00000000000000	0.19776800000000	0.00000000000000	
4.95998100000000	-43.67497800000000	818.82168600000000	66.27356000000000	0.12951400000000	0.00000000000000	0.10576200000000	-2.55404400000000	16.94148900000000	1.37533100000000	0.00000000000000	0.00000000000000	0.00000000000000	0.00000000000000	25.87112200000000	0.00000000000000	0.00000000000000	0.27665700000000	0.00000000000000	
4.96165300000000	-44.14293400000000	817.14967500000000	66.24292500000000	0.12856300000000	0.00000000000000	0.10573700000000	-3.14340900000000	22.90400400000000	1.74863100000000	0.00000000000000	0.00000000000000	0.00000000000000	0.00000000000000	25.77007100000000	0.00000000000000	0.00000000000000	0.36370700000000	0.00000000000000	
4.96331200000000	-44.61967500000000	815.33871499999998	66.18462000000000	0.12762000000000	0.00000000000000	0.10570900000000	-3.71161500000000	29.47989400000000	2.13041600000000	0.31944400000000	0.00000000000000	-0.10025200000000	0.00000000000000	25.66570600000000	0.00000000000000	0.00000000000000	0.76527500000000	0.00000000000000	
4.96498300000000	-45.10545800000000	813.38763800000004	66.09789100000000	0.12668400000000	0.00000000000000	0.10567600000000	-4.23009500000000	36.55134800000000	2.50690600000000	0.32787400000000	0.00000000000000	-0.10054400000000	0.00000000000000	25.55816300000000	0.00000000000000	0.00000000000000	0.95026900000000	0.00000000000000	
4.96664900000000	-45.60049700000000	811.29538300000002	65.98203500000000	0.12575700000000	0.00000000000000	0.10563800000000	-4.67156800000000	43.99015300000000	2.86442300000000	0.33537400000000	0.00000000000000	-0.10079000000000	0.00000000000000	25.44757700000000	0.00000000000000	0.00000000000000	1.14146500000000	0.00000000000000	
4.96831700000000	-46.10496400000000	809.06099600000005	65.83640000000000	0.12483900000000	0.00000000000000	0.10559500000000	-5.01191600000000	51.66846100000000	3.19036900000000	0.34211100000000	0.00000000000000	-0.10100100000000	0.00000000000000	25.33408400000000	0.00000000000000	0.00000000000000	1.33379200000000	0.00000000000000	
4.96997800000000	-46.61898600000000	806.68362200000001	65.66038600000000	0.12393100000000	0.00000000000000	0.10554800000000	-5.23167400000000	59.46857700000000	3.47402500000000	0.34821400000000	0.00000000000000	-0.10118300000000	0.00000000000000	25.21781800000000	0.00000000000000	0.00000000000000	1.52248900000000	0.00000000000000	
4.97165100000000	-47.14264000000000	804.16250300000002	65.45345200000000	0.12303400000000	0.00000000000000	0.10549600000000	-5.31697600000000	67.29071399999999	3.70711400000000	0.35378100000000	0.00000000000000	-0.10134100000000	0.00000000000000	25.09891300000000	0.00000000000000	0.00000000000000	1.70339200000000	0.00000000000000	
4.97331600000000	-47.67595600000000	801.49697100000003	65.21511300000000	0.12214800000000	0.00000000000000	0.10543900000000	-5.25993100000000	75.05816000000000	3.88408700000000	0.35889200000000	0.00000000000000	-0.10148100000000	0.00000000000000	24.97749700000000	0.00000000000000	0.00000000000000	1.87313900000000	0.00000000000000	
4.97497800000000	-48.21891100000000	798.68645100000003	64.94494700000000	0.12127500000000	0.00000000000000	0.10537600000000	-5.05845700000000	82.71972900000000	4.00213900000000	0.36360800000000	0.00000000000000	-0.10160500000000	0.00000000000000	24.85369700000000	0.00000000000000	0.00000000000000	2.02927400000000	0.00000000000000	
4.97665200000000	-48.77142800000000	795.73044900000002	64.64259400000000	0.12041500000000	0.00000000000000	0.10530800000000	-4.71567200000000	90.24970000000000	4.06100600000000	0.36798100000000	0.00000000000000	-0.10171700000000	0.00000000000000	24.72763300000000	0.00000000000000	0.00000000000000	2.17026700000000	0.00000000000000	
4.97831100000000	-49.33337700000000	792.62855400000001	64.30775900000000	0.11956800000000	0.00000000000000	0.10523500000000	-4.23896900000000	97.64566499999999	4.06258400000000	0.37205200000000	0.00000000000000	-0.10181800000000	0.00000000000000	24.59942200000000	0.00000000000000	0.00000000000000	2.29544500000000	0.00000000000000	
4.97997800000000	-49.90457000000000	789.38043200000004	63.94021400000000	0.11873600000000	0.00000000000000	0.10515600000000	-3.63890200000000	104.92482699999999	4.01043800000000	0.37585500000000	0.00000000000000	-0.10191000000000	0.00000000000000	24.46917400000000	0.00000000000000	0.00000000000000	2.40486900000000	0.00000000000000	
4.98165100000000	-50.48476200000000	785.98582199999998	63.53980000000000	0.11791900000000	0.00000000000000	0.10507200000000	-2.92800700000000	112.11932700000000	3.90926000000000	0.37941900000000	0.00000000000000	-0.10199600000000	0.00000000000000	24.33699000000000	0.00000000000000	0.00000000000000	2.49917000000000	0.00000000000000	
4.98331300000000	-51.07364800000000	782.44453199999998	63.10642600000000	0.11711800000000	0.00000000000000	0.10498200000000	-2.11967300000000	119.27115000000001	3.76433500000000	0.38276700000000	0.00000000000000	-0.10207600000000	0.00000000000000	24.20296500000000	0.00000000000000	0.00000000000000	2.57936500000000	0.00000000000000	
4.98497700000000	-51.67086300000000	778.75644100000000	62.64007100000000	0.11633300000000	0.00000000000000	0.10488600000000	-1.22713700000000	126.42710599999999	3.58104300000000	0.38592100000000	0.00000000000000	-0.10215100000000	0.00000000000000	24.06718700000000	0.00000000000000	0.00000000000000	2.64667400000000	0.00000000000000	
4.98664800000000	-52.27597900000000	774.92148599999996	62.14078600000000	0.11556500000000	0.00000000000000	0.10478400000000	-0.26267100000000	133.63427100000001	3.36444800000000	0.38889600000000	0.00000000000000	-0.10222200000000	0.00000000000000	23.92973200000000	0.00000000000000	0.00000000000000	2.70235600000000	0.00000000000000	
4.98831600000000	-52.88850800000000	770.93966999999998	61.60869700000000	0.11481500000000	0.00000000000000	0.10467700000000	0.76301400000000	140.93616100000000	3.11897900000000	0.39170900000000	0.00000000000000	-0.10229000000000	0.00000000000000	23.79066800000000	0.00000000000000	0.00000000000000	2.74755900000000	0.00000000000000	
4.98998500000000	-53.50789600000000	766.81105200000002	61.04399600000000	0.11408200000000	0.00000000000000	0.10456300000000	1.84114000000000	148.36981399999999	2.84822000000000	0.39437200000000	0.00000000000000	-0.10235600000000	0.00000000000000	23.65005200000000	0.00000000000000	0.00000000000000	2.78322200000000	0.00000000000000	
4.99165100000000	-54.13352400000000	762.53574700000001	60.44695500000000	0.11336800000000	0.00000000000000	0.10444400000000	2.96501000000000	155.96384399999999	2.55479900000000	0.39689600000000	0.00000000000000	-0.10242000000000	0.00000000000000	23.50793100000000	0.00000000000000	0.00000000000000	2.80999600000000	0.00000000000000	
4.99331900000000	-54.76471100000000	758.11392400000000	59.81791200000000	0.11267200000000	0.00000000000000	0.10431800000000	4.12997600000000	163.73742400000000	2.24036900000000	0.39929000000000	0.00000000000000	-0.10248200000000	0.00000000000000	23.36434000000000	0.00000000000000	0.00000000000000	2.82821100000000	0.00000000000000	
4.99498800000000	-55.40070700000000	753.54580299999998	59.15728300000000	0.11199500000000	0.00000000000000	0.10418700000000	5.33325300000000	171.70013200000000	1.90567400000000	0.40156300000000	0.00000000000000	-0.10254400000000	0.00000000000000	23.21930300000000	0.00000000000000	0.00000000000000	2.83787500000000	0.00000000000000	
4.99665300000000	-56.04069900000000	748.83165499999996	58.46555100000000	0.11133800000000	0.00000000000000	0.10404900000000	6.57361500000000	179.85249099999999	1.55066600000000	0.40372100000000	0.00000000000000	-0.10260500000000	0.00000000000000	23.07283400000000	0.00000000000000	0.00000000000000	2.83869100000000	0.00000000000000	
4.99831500000000	-56.68380700000000	743.97180100000003	57.74327500000000	0.11070000000000	0.00000000000000	0.10390600000000	7.85103600000000	188.18704700000001	1.17466500000000	0.40577300000000	0.00000000000000	-0.10266500000000	0.00000000000000	22.92493200000000	0.00000000000000	0.00000000000000	2.83010700000000	0.00000000000000	
4.99998200000000	-57.32908700000000	738.96660699999995	56.99108100000000	0.11008300000000	0.00000000000000	0.10375700000000	9.16629300000000	196.68980199999999	0.77654000000000	0.40772300000000	0.00000000000000	-0.10272600000000	0.00000000000000	22.77558700000000	0.00000000000000	0.00000000000000	2.81137100000000	0.00000000000000	
5.00165200000000	-57.97552800000000	733.81648900000005	56.20966400000000	0.10948500000000	0.00000000000000	0.10360100000000	10.52058000000000	205.34183200000001	0.35489200000000	0.40957600000000	0.00000000000000	-0.10278700000000	0.00000000000000	22.62477400000000	0.00000000000000	0.00000000000000	2.78159500000000	0.00000000000000	
5.00331400000000	-58.62205500000000	728.52190900000005	55.39979000000000	0.10890700000000	0.00000000000000	0.10344000000000	11.91515300000000	214.12093800000000	-0.09177400000000	0.41133600000000	0.00000000000000	-0.10284800000000	0.00000000000000	22.47246000000000	0.00000000000000	0.00000000000000	2.73982200000000	0.00000000000000	
5.00498400000000	-59.26753100000000	723.08337900000004	54.56228700000000	0.10834900000000	0.00000000000000	0.10327300000000	13.35103700000000	223.00319400000001	-0.56489500000000	0.41300800000000	0.00000000000000	-0.10291000000000	0.00000000000000	22.31859800000000	0.00000000000000	0.00000000000000	2.68508400000000	0.00000000000000	
5.00664900000000	-59.91075500000000	717.50145799999996	53.69805100000000	0.10781200000000	0.00000000000000	0.10310100000000	14.82878500000000	231.96431500000000	-1.06573000000000	0.41459500000000	0.00000000000000	-0.10297200000000	0.00000000000000	22.16312900000000	0.00000000000000	0.00000000000000	2.61646000000000	0.00000000000000	
5.00831200000000	-60.55046700000000	711.77675799999997	52.80803900000000	0.10729500000000	0.00000000000000	0.10292200000000	16.34832400000000	240.98076699999999	-1.59527000000000	0.41610000000000	0.00000000000000	-0.10303600000000	0.00000000000000	22.00598500000000	0.00000000000000	0.00000000000000	2.53311300000000	0.00000000000000	
